<svg width="80" height="80" viewBox="0 0 80 80" fill="none" xmlns="http://www.w3.org/2000/svg">
<g clip-path="url(#clip0_2_2)">
<path d="M42.23 40.004C42.23 40.5969 41.9946 41.1654 41.5754 41.5847C41.1563 42.004 40.5879 42.2397 39.995 42.24C39.402 42.24 38.8332 42.0044 38.4139 41.5851C37.9946 41.1658 37.759 40.597 37.759 40.004C37.759 39.4112 37.9944 38.8426 38.4136 38.4233C38.8327 38.004 39.4011 37.7683 39.994 37.768C40.587 37.768 41.1558 38.0036 41.5751 38.4229C41.9944 38.8422 42.23 39.411 42.23 40.004ZM44.878 29.314C43.532 29.314 41.771 30.274 39.99 31.936C38.21 30.283 36.448 29.334 35.103 29.334C34.693 29.334 34.32 29.427 33.997 29.612C32.622 30.405 32.314 32.876 33.024 35.977C29.98 36.917 28 38.42 28 40.004C28 41.594 29.99 43.101 33.043 44.034C32.339 47.147 32.653 49.622 34.031 50.414C34.351 50.601 34.721 50.689 35.133 50.689C36.478 50.689 38.24 49.729 40.021 48.065C41.801 49.719 43.563 50.668 44.908 50.668C45.318 50.668 45.691 50.578 46.014 50.393C47.388 49.601 47.697 47.13 46.987 44.028C50.02 43.096 52 41.59 52 40.004C52 38.414 50.01 36.907 46.957 35.972C47.661 32.862 47.347 30.385 45.969 29.592C45.6359 29.4047 45.2601 29.3088 44.878 29.314ZM44.873 30.404V30.41C45.098 30.41 45.279 30.454 45.431 30.537C46.097 30.919 46.386 32.372 46.161 34.241C46.107 34.701 46.019 35.186 45.911 35.681C44.8885 35.4336 43.8505 35.2552 42.804 35.147C42.1808 34.287 41.501 33.4695 40.769 32.7C42.361 31.22 43.856 30.408 44.874 30.405L44.873 30.404ZM35.103 30.424C36.115 30.424 37.617 31.232 39.213 32.704C38.527 33.424 37.843 34.241 37.193 35.146C36.1441 35.2529 35.1039 35.4327 34.08 35.684C33.9726 35.215 33.8879 34.7411 33.826 34.264C33.596 32.396 33.88 30.944 34.54 30.557C34.73 30.467 34.94 30.429 35.103 30.424ZM39.985 33.474C40.44 33.942 40.895 34.466 41.345 35.038C40.905 35.018 40.455 35.004 40 35.004C39.54 35.004 39.085 35.014 38.64 35.038C39.08 34.466 39.535 33.943 39.985 33.474ZM40 36.1C40.74 36.1 41.477 36.134 42.202 36.193C42.608 36.775 43.004 37.396 43.385 38.053C43.757 38.693 44.095 39.343 44.403 39.999C44.095 40.654 43.757 41.309 43.39 41.949C43.01 42.609 42.617 43.237 42.21 43.819C40.7422 43.9474 39.2661 43.9491 37.798 43.824C37.3782 43.2206 36.9835 42.6001 36.615 41.964C36.243 41.324 35.905 40.674 35.597 40.018C35.906 39.3522 36.244 38.7003 36.61 38.064C36.99 37.404 37.383 36.778 37.79 36.196C38.5249 36.1311 39.2623 36.0984 40 36.098V36.1ZM36.365 36.354C36.125 36.731 35.885 37.117 35.661 37.514C35.436 37.904 35.226 38.296 35.026 38.688C34.761 38.032 34.536 37.378 34.35 36.741C34.99 36.591 35.665 36.457 36.365 36.354ZM43.625 36.354C44.32 36.457 44.99 36.584 45.631 36.741C45.451 37.373 45.226 38.023 44.971 38.674C44.5629 37.878 44.114 37.1036 43.626 36.354H43.625ZM46.688 37.029C47.172 37.179 47.632 37.346 48.063 37.527C49.795 38.267 50.915 39.235 50.915 40.003C50.91 40.771 49.79 41.743 48.058 42.478C47.638 42.658 47.178 42.82 46.703 42.971C46.4026 41.9544 46.0352 40.9589 45.603 39.991C46.053 38.974 46.413 37.981 46.688 37.027V37.029ZM33.293 37.033C33.571 37.993 33.938 38.99 34.393 40.013C33.964 40.9751 33.6011 41.9654 33.307 42.977C32.823 42.827 32.363 42.659 31.937 42.477C30.205 41.74 29.085 40.771 29.085 40.003C29.085 39.235 30.205 38.261 31.937 37.527C32.357 37.347 32.817 37.185 33.293 37.033ZM44.971 41.313C45.236 41.97 45.461 42.625 45.647 43.261C45.007 43.418 44.331 43.551 43.631 43.651C44.1184 42.8955 44.565 42.1152 44.971 41.313ZM35.026 41.333C35.226 41.725 35.436 42.116 35.666 42.508C35.896 42.898 36.131 43.28 36.371 43.651C35.6967 43.5535 35.0273 43.4247 34.365 43.265C34.545 42.635 34.771 41.983 35.025 41.332L35.026 41.333ZM45.92 44.32C46.032 44.813 46.12 45.288 46.174 45.743C46.404 47.611 46.12 49.063 45.46 49.451C45.313 49.541 45.122 49.579 44.897 49.579C43.885 49.579 42.383 48.772 40.787 47.299C41.473 46.579 42.157 45.763 42.807 44.859C43.914 44.741 44.961 44.56 45.92 44.32ZM34.09 44.33C35.05 44.564 36.096 44.745 37.197 44.862C37.857 45.767 38.542 46.589 39.232 47.308C37.637 48.791 36.14 49.603 35.122 49.603C34.9297 49.6045 34.7399 49.5592 34.569 49.471C33.903 49.091 33.614 47.637 33.839 45.768C33.893 45.308 33.982 44.824 34.09 44.33ZM38.65 44.97C39.09 44.99 39.54 45.004 39.995 45.004C40.455 45.004 40.91 44.994 41.355 44.97C40.915 45.542 40.46 46.065 40.01 46.535C39.555 46.065 39.1 45.542 38.65 44.97Z" fill="white"/>
<rect width="80" height="80" rx="40" fill="#5F0F82"/>
<path d="M11.5522 52H10.2303L12.6371 45.1636H14.1659L16.576 52H15.2541L13.4282 46.5656H13.3748L11.5522 52ZM11.5956 49.3195H15.2007V50.3143H11.5956V49.3195ZM23.0944 45.1636V52H21.9928L18.7716 47.3434H18.7149V52H17.4764V45.1636H18.5847L21.8026 49.8236H21.8627V45.1636H23.0944ZM25.3217 52H23.9999L26.4066 45.1636H27.9354L30.3455 52H29.0237L27.1977 46.5656H27.1443L25.3217 52ZM25.3651 49.3195H28.9702V50.3143H25.3651V49.3195ZM34.8511 47.043C34.8199 46.7514 34.6886 46.5245 34.4572 46.362C34.228 46.1996 33.9298 46.1183 33.5626 46.1183C33.3044 46.1183 33.083 46.1573 32.8983 46.2352C32.7136 46.313 32.5723 46.4187 32.4744 46.5523C32.3765 46.6858 32.3264 46.8382 32.3242 47.0096C32.3242 47.152 32.3564 47.2755 32.421 47.3801C32.4877 47.4847 32.5779 47.5737 32.6914 47.6472C32.8048 47.7184 32.9306 47.7785 33.0686 47.8274C33.2065 47.8764 33.3456 47.9175 33.4858 47.9509L34.1267 48.1112C34.3849 48.1712 34.633 48.2525 34.8711 48.3548C35.1115 48.4572 35.3262 48.5863 35.5154 48.742C35.7067 48.8978 35.8581 49.0859 35.9693 49.3062C36.0806 49.5265 36.1362 49.7846 36.1362 50.0806C36.1362 50.4812 36.0339 50.8339 35.8291 51.1388C35.6244 51.4414 35.3284 51.6784 34.9412 51.8498C34.5562 52.0189 34.09 52.1035 33.5426 52.1035C33.0107 52.1035 32.5489 52.0211 32.1573 51.8565C31.7678 51.6918 31.4629 51.4514 31.2426 51.1354C31.0245 50.8194 30.9066 50.4344 30.8888 49.9805H32.1072C32.125 50.2186 32.1984 50.4166 32.3275 50.5746C32.4566 50.7326 32.6246 50.8506 32.8316 50.9285C33.0407 51.0064 33.2744 51.0453 33.5325 51.0453C33.8018 51.0453 34.0377 51.0053 34.2402 50.9251C34.445 50.8428 34.6052 50.7293 34.7209 50.5847C34.8366 50.4378 34.8956 50.2664 34.8978 50.0706C34.8956 49.8926 34.8433 49.7457 34.7409 49.63C34.6386 49.512 34.495 49.4141 34.3103 49.3362C34.1278 49.2561 33.9142 49.1849 33.6694 49.1226L32.8916 48.9223C32.3286 48.7777 31.8835 48.5585 31.5564 48.2647C31.2315 47.9687 31.0691 47.5759 31.0691 47.0864C31.0691 46.6836 31.1781 46.3308 31.3962 46.0282C31.6165 45.7255 31.9158 45.4908 32.2941 45.3239C32.6724 45.1547 33.1008 45.0702 33.5793 45.0702C34.0644 45.0702 34.4895 45.1547 34.8544 45.3239C35.2216 45.4908 35.5098 45.7233 35.719 46.0215C35.9282 46.3175 36.0361 46.658 36.0428 47.043H34.8511ZM36.9399 46.2018V45.1636H42.3943V46.2018H40.2813V52H39.0529V46.2018H36.9399ZM43.4975 52H42.1756L44.5824 45.1636H46.1112L48.5213 52H47.1994L45.3735 46.5656H45.3201L43.4975 52ZM43.5409 49.3195H47.146V50.3143H43.5409V49.3195ZM53.0269 47.043C52.9957 46.7514 52.8644 46.5245 52.633 46.362C52.4038 46.1996 52.1056 46.1183 51.7384 46.1183C51.4802 46.1183 51.2588 46.1573 51.0741 46.2352C50.8894 46.313 50.7481 46.4187 50.6502 46.5523C50.5522 46.6858 50.5022 46.8382 50.4999 47.0096C50.4999 47.152 50.5322 47.2755 50.5967 47.3801C50.6635 47.4847 50.7536 47.5737 50.8671 47.6472C50.9806 47.7184 51.1064 47.7785 51.2443 47.8274C51.3823 47.8764 51.5214 47.9175 51.6616 47.9509L52.3025 48.1112C52.5606 48.1712 52.8088 48.2525 53.0469 48.3548C53.2872 48.4572 53.502 48.5863 53.6911 48.742C53.8825 48.8978 54.0338 49.0859 54.1451 49.3062C54.2564 49.5265 54.312 49.7846 54.312 50.0806C54.312 50.4812 54.2097 50.8339 54.0049 51.1388C53.8002 51.4414 53.5042 51.6784 53.117 51.8498C52.732 52.0189 52.2658 52.1035 51.7183 52.1035C51.1865 52.1035 50.7247 52.0211 50.333 51.8565C49.9436 51.6918 49.6387 51.4514 49.4184 51.1354C49.2003 50.8194 49.0824 50.4344 49.0646 49.9805H50.283C50.3008 50.2186 50.3742 50.4166 50.5033 50.5746C50.6324 50.7326 50.8004 50.8506 51.0073 50.9285C51.2165 51.0064 51.4502 51.0453 51.7083 51.0453C51.9776 51.0453 52.2135 51.0053 52.416 50.9251C52.6207 50.8428 52.781 50.7293 52.8967 50.5847C53.0124 50.4378 53.0714 50.2664 53.0736 50.0706C53.0714 49.8926 53.0191 49.7457 52.9167 49.63C52.8143 49.512 52.6708 49.4141 52.4861 49.3362C52.3036 49.2561 52.09 49.1849 51.8452 49.1226L51.0674 48.9223C50.5044 48.7777 50.0593 48.5585 49.7322 48.2647C49.4073 47.9687 49.2448 47.5759 49.2448 47.0864C49.2448 46.6836 49.3539 46.3308 49.572 46.0282C49.7923 45.7255 50.0916 45.4908 50.4699 45.3239C50.8482 45.1547 51.2766 45.0702 51.7551 45.0702C52.2402 45.0702 52.6652 45.1547 53.0302 45.3239C53.3974 45.4908 53.6856 45.7233 53.8948 46.0215C54.1039 46.3175 54.2119 46.658 54.2186 47.043H53.0269ZM56.6545 45.1636V52H55.4161V45.1636H56.6545ZM57.5282 45.1636H58.9269L60.5993 48.1879H60.666L62.3384 45.1636H63.7371L61.2502 49.4497V52H60.0151V49.4497L57.5282 45.1636ZM64.7944 52H63.4725L65.8793 45.1636H67.4081L69.8182 52H68.4963L66.6704 46.5656H66.617L64.7944 52ZM64.8378 49.3195H68.4429V50.3143H64.8378V49.3195Z" fill="white"/>
<path d="M12.4182 61H10.5452V55.4727H12.456C13.0047 55.4727 13.4761 55.5834 13.8702 55.8047C14.266 56.0242 14.5701 56.34 14.7824 56.752C14.9947 57.164 15.1009 57.657 15.1009 58.231C15.1009 58.8067 14.9938 59.3015 14.7797 59.7153C14.5674 60.1292 14.2606 60.4467 13.8594 60.668C13.4599 60.8893 12.9795 61 12.4182 61ZM11.5464 60.1337H12.3696C12.7546 60.1337 13.0758 60.0635 13.3331 59.9232C13.5904 59.781 13.7838 59.5696 13.9134 59.2889C14.0429 59.0064 14.1077 58.6538 14.1077 58.231C14.1077 57.8081 14.0429 57.4573 13.9134 57.1784C13.7838 56.8977 13.5922 56.6881 13.3385 56.5496C13.0866 56.4092 12.7735 56.3391 12.3993 56.3391H11.5464V60.1337ZM16.4651 61H15.3964L17.3423 55.4727H18.5783L20.5269 61H19.4582L17.9819 56.6063H17.9387L16.4651 61ZM16.5002 58.8328H19.415V59.6371H16.5002V58.8328ZM21.2549 61V55.4727H23.3277C23.7523 55.4727 24.1085 55.5465 24.3964 55.694C24.6861 55.8416 24.9047 56.0485 25.0522 56.3148C25.2016 56.5793 25.2762 56.8878 25.2762 57.2405C25.2762 57.5949 25.2007 57.9026 25.0495 58.1635C24.9002 58.4226 24.6798 58.6232 24.3883 58.7653C24.0968 58.9057 23.7388 58.9759 23.3142 58.9759H21.8379V58.1446H23.1792C23.4275 58.1446 23.6308 58.1104 23.7892 58.042C23.9475 57.9719 24.0645 57.8702 24.14 57.7371C24.2174 57.6021 24.2561 57.4366 24.2561 57.2405C24.2561 57.0444 24.2174 56.877 24.14 56.7385C24.0627 56.5982 23.9448 56.492 23.7865 56.42C23.6281 56.3463 23.4239 56.3094 23.1738 56.3094H22.2562V61H21.2549ZM24.1103 58.4955L25.4787 61H24.3613L23.0173 58.4955H24.1103ZM26.9077 61H25.839L27.7848 55.4727H29.0209L30.9695 61H29.9007L28.4245 56.6063H28.3813L26.9077 61ZM26.9428 58.8328H29.8576V59.6371H26.9428V58.8328ZM34.6123 56.9922C34.5871 56.7565 34.4809 56.573 34.2938 56.4416C34.1085 56.3103 33.8674 56.2446 33.5705 56.2446C33.3618 56.2446 33.1828 56.2761 33.0335 56.3391C32.8841 56.402 32.7699 56.4875 32.6907 56.5955C32.6115 56.7034 32.571 56.8267 32.5692 56.9652C32.5692 57.0804 32.5953 57.1802 32.6475 57.2648C32.7015 57.3493 32.7744 57.4213 32.8661 57.4807C32.9579 57.5383 33.0595 57.5868 33.1711 57.6264C33.2826 57.666 33.3951 57.6993 33.5085 57.7263L34.0266 57.8558C34.2353 57.9044 34.436 57.9701 34.6285 58.0528C34.8228 58.1356 34.9964 58.24 35.1494 58.3659C35.3041 58.4919 35.4264 58.6439 35.5164 58.822C35.6064 59.0001 35.6514 59.2089 35.6514 59.4482C35.6514 59.772 35.5686 60.0572 35.4031 60.3037C35.2375 60.5484 34.9982 60.74 34.6852 60.8786C34.3739 61.0153 33.9969 61.0837 33.5543 61.0837C33.1243 61.0837 32.751 61.0171 32.4343 60.8839C32.1194 60.7508 31.8729 60.5565 31.6948 60.301C31.5185 60.0455 31.4231 59.7342 31.4087 59.3672H32.3938C32.4082 59.5597 32.4676 59.7198 32.5719 59.8476C32.6763 59.9753 32.8121 60.0707 32.9795 60.1337C33.1486 60.1966 33.3375 60.2281 33.5462 60.2281C33.7639 60.2281 33.9547 60.1957 34.1184 60.131C34.2839 60.0644 34.4135 59.9726 34.507 59.8557C34.6006 59.7369 34.6483 59.5984 34.6501 59.4401C34.6483 59.2961 34.606 59.1774 34.5232 59.0838C34.4405 58.9884 34.3244 58.9093 34.1751 58.8463C34.0275 58.7815 33.8548 58.724 33.6569 58.6736L33.0281 58.5116C32.5728 58.3947 32.213 58.2175 31.9485 57.98C31.6858 57.7407 31.5545 57.4231 31.5545 57.0273C31.5545 56.7016 31.6426 56.4164 31.819 56.1717C31.9971 55.927 32.2391 55.7372 32.545 55.6023C32.8508 55.4655 33.1972 55.3972 33.584 55.3972C33.9763 55.3972 34.3199 55.4655 34.615 55.6023C34.9119 55.7372 35.1449 55.9252 35.314 56.1663C35.4831 56.4056 35.5704 56.6809 35.5758 56.9922H34.6123ZM36.544 61V55.4727H37.5453V57.8126H40.1065V55.4727H41.1105V61H40.1065V58.652H37.5453V61H36.544ZM42.1995 61V55.4727H43.2007V58.0124H43.2682L45.4246 55.4727H46.6472L44.5097 57.953L46.6661 61H45.4624L43.8134 58.6304L43.2007 59.3537V61H42.1995ZM47.3428 61V55.4727H50.9377V56.3121H48.3441V57.8126H50.7515V58.652H48.3441V60.1607H50.9593V61H47.3428ZM52.6987 55.4727L54.1372 59.8233H54.1939L55.6297 55.4727H56.7308L54.7822 61H53.5462L51.6003 55.4727H52.6987ZM58.4601 55.4727V61H57.4588V55.4727H58.4601ZM64.2755 57.3376H63.2661C63.2373 57.1721 63.1843 57.0255 63.1069 56.8977C63.0295 56.7682 62.9333 56.6584 62.8181 56.5685C62.703 56.4785 62.5716 56.411 62.4241 56.3661C62.2783 56.3193 62.1209 56.2959 61.9518 56.2959C61.6513 56.2959 61.385 56.3714 61.1529 56.5226C60.9208 56.6719 60.7391 56.8914 60.6077 57.1811C60.4764 57.469 60.4107 57.8207 60.4107 58.2364C60.4107 58.6592 60.4764 59.0154 60.6077 59.3051C60.7409 59.593 60.9226 59.8107 61.1529 59.9582C61.385 60.104 61.6504 60.1768 61.9491 60.1768C62.1146 60.1768 62.2693 60.1553 62.4133 60.1121C62.559 60.0671 62.6895 60.0014 62.8046 59.9151C62.9216 59.8287 63.0196 59.7225 63.0988 59.5966C63.1798 59.4706 63.2355 59.3267 63.2661 59.1648L64.2755 59.1702C64.2377 59.4329 64.1558 59.6794 64.0299 59.9097C63.9058 60.14 63.7429 60.3433 63.5414 60.5196C63.3399 60.6941 63.1042 60.8309 62.8343 60.9298C62.5644 61.027 62.2648 61.0756 61.9356 61.0756C61.4498 61.0756 61.0162 60.9631 60.6347 60.7382C60.2533 60.5133 59.9528 60.1885 59.7333 59.7639C59.5138 59.3393 59.404 58.8301 59.404 58.2364C59.404 57.6408 59.5147 57.1316 59.736 56.7088C59.9573 56.2842 60.2587 55.9594 60.6401 55.7345C61.0216 55.5096 61.4534 55.3972 61.9356 55.3972C62.2433 55.3972 62.5293 55.4403 62.7938 55.5267C63.0583 55.6131 63.294 55.7399 63.5009 55.9072C63.7078 56.0728 63.8779 56.2761 64.011 56.5172C64.146 56.7565 64.2341 57.03 64.2755 57.3376ZM65.1924 61V55.4727H66.1937V57.8126H68.7549V55.4727H69.7589V61H68.7549V58.652H66.1937V61H65.1924Z" fill="white"/>
<path d="M42.7875 25.005C42.7875 25.7461 42.4932 26.4568 41.9693 26.9809C41.4454 27.505 40.7348 27.7997 39.9937 27.8C39.2525 27.8 38.5416 27.5055 38.0174 26.9814C37.4932 26.4572 37.1987 25.7463 37.1987 25.005C37.1987 24.2639 37.4931 23.5532 38.0169 23.0291C38.5408 22.5049 39.2514 22.2103 39.9925 22.21C40.7338 22.21 41.4447 22.5045 41.9689 23.0286C42.493 23.5528 42.7875 24.2637 42.7875 25.005ZM46.0975 11.6425C44.415 11.6425 42.2137 12.8425 39.9875 14.92C37.7625 12.8537 35.56 11.6675 33.8787 11.6675C33.3663 11.6675 32.9 11.7837 32.4963 12.015C30.7775 13.0062 30.3925 16.095 31.28 19.9712C27.475 21.1462 25 23.025 25 25.005C25 26.9925 27.4875 28.8762 31.3038 30.0425C30.4238 33.9337 30.8163 37.0275 32.5388 38.0175C32.9388 38.2512 33.4012 38.3612 33.9163 38.3612C35.5975 38.3612 37.8 37.1612 40.0262 35.0812C42.2512 37.1487 44.4538 38.335 46.135 38.335C46.6475 38.335 47.1138 38.2225 47.5175 37.9912C49.235 37.0012 49.6213 33.9125 48.7337 30.035C52.525 28.87 55 26.9875 55 25.005C55 23.0175 52.5125 21.1337 48.6963 19.965C49.5763 16.0775 49.1838 12.9812 47.4613 11.99C47.0449 11.7558 46.5752 11.6359 46.0975 11.6425ZM46.0912 13.005V13.0125C46.3725 13.0125 46.5987 13.0675 46.7887 13.1712C47.6213 13.6487 47.9825 15.465 47.7012 17.8012C47.6337 18.3762 47.5237 18.9825 47.3887 19.6012C46.1106 19.292 44.8131 19.069 43.505 18.9337C42.726 17.8588 41.8762 16.8369 40.9613 15.875C42.9513 14.025 44.82 13.01 46.0925 13.0062L46.0912 13.005ZM33.8787 13.03C35.1438 13.03 37.0213 14.04 39.0163 15.88C38.1588 16.78 37.3038 17.8012 36.4913 18.9325C35.1801 19.0661 33.8799 19.2909 32.6 19.605C32.4658 19.0188 32.3598 18.4264 32.2825 17.83C31.995 15.495 32.35 13.68 33.175 13.1962C33.4125 13.0837 33.675 13.0362 33.8787 13.03ZM39.9812 16.8425C40.55 17.4275 41.1187 18.0825 41.6812 18.7975C41.1313 18.7725 40.5688 18.755 40 18.755C39.425 18.755 38.8563 18.7675 38.3 18.7975C38.85 18.0825 39.4187 17.4287 39.9812 16.8425ZM40 20.125C40.925 20.125 41.8462 20.1675 42.7525 20.2412C43.26 20.9687 43.755 21.745 44.2313 22.5662C44.6963 23.3662 45.1187 24.1787 45.5037 24.9987C45.1187 25.8175 44.6963 26.6362 44.2375 27.4362C43.7625 28.2612 43.2712 29.0462 42.7625 29.7737C40.9278 29.9343 39.0826 29.9364 37.2475 29.78C36.7227 29.0257 36.2294 28.2501 35.7687 27.455C35.3038 26.655 34.8813 25.8425 34.4963 25.0225C34.8825 24.1903 35.305 23.3753 35.7625 22.58C36.2375 21.755 36.7288 20.9725 37.2375 20.245C38.1561 20.1638 39.0778 20.1229 40 20.1225V20.125ZM35.4562 20.4425C35.1562 20.9137 34.8562 21.3962 34.5763 21.8925C34.295 22.38 34.0325 22.87 33.7825 23.36C33.4513 22.54 33.17 21.7225 32.9375 20.9262C33.7375 20.7387 34.5813 20.5712 35.4562 20.4425ZM44.5312 20.4425C45.4 20.5712 46.2375 20.73 47.0387 20.9262C46.8138 21.7162 46.5325 22.5287 46.2138 23.3425C45.7037 22.3475 45.1425 21.3795 44.5325 20.4425H44.5312ZM48.36 21.2862C48.965 21.4737 49.54 21.6825 50.0788 21.9087C52.2437 22.8337 53.6438 24.0437 53.6438 25.0037C53.6375 25.9637 52.2375 27.1787 50.0725 28.0975C49.5475 28.3225 48.9725 28.525 48.3787 28.7137C48.0033 27.443 47.544 26.1986 47.0037 24.9887C47.5662 23.7175 48.0162 22.4762 48.36 21.2837V21.2862ZM31.6163 21.2912C31.9638 22.4912 32.4225 23.7375 32.9913 25.0162C32.4549 26.2189 32.0014 27.4568 31.6337 28.7212C31.0288 28.5337 30.4538 28.3237 29.9212 28.0962C27.7563 27.175 26.3563 25.9637 26.3563 25.0037C26.3563 24.0437 27.7563 22.8262 29.9212 21.9087C30.4462 21.6837 31.0213 21.4812 31.6163 21.2912ZM46.2138 26.6412C46.545 27.4625 46.8263 28.2812 47.0588 29.0762C46.2587 29.2725 45.4137 29.4387 44.5387 29.5637C45.148 28.6194 45.7063 27.6439 46.2138 26.6412ZM33.7825 26.6662C34.0325 27.1562 34.295 27.645 34.5825 28.135C34.87 28.6225 35.1638 29.1 35.4638 29.5637C34.6209 29.4418 33.7842 29.2808 32.9562 29.0812C33.1812 28.2937 33.4637 27.4787 33.7812 26.665L33.7825 26.6662ZM47.4 30.4C47.54 31.0162 47.65 31.61 47.7175 32.1787C48.005 34.5137 47.65 36.3287 46.825 36.8137C46.6412 36.9262 46.4025 36.9737 46.1213 36.9737C44.8562 36.9737 42.9788 35.965 40.9837 34.1237C41.8412 33.2237 42.6963 32.2037 43.5088 31.0737C44.8925 30.9262 46.2013 30.7 47.4 30.4ZM32.6125 30.4125C33.8125 30.705 35.12 30.9312 36.4962 31.0775C37.3212 32.2087 38.1775 33.2362 39.04 34.135C37.0463 35.9887 35.175 37.0037 33.9025 37.0037C33.6621 37.0057 33.4249 36.949 33.2112 36.8387C32.3787 36.3637 32.0175 34.5462 32.2988 32.21C32.3663 31.635 32.4775 31.03 32.6125 30.4125ZM38.3125 31.2125C38.8625 31.2375 39.425 31.255 39.9937 31.255C40.5687 31.255 41.1375 31.2425 41.6937 31.2125C41.1437 31.9275 40.575 32.5812 40.0125 33.1687C39.4438 32.5812 38.875 31.9275 38.3125 31.2125Z" fill="white"/>
</g>
<defs>
<clipPath id="clip0_2_2">
<rect width="80" height="80" fill="white"/>
</clipPath>
</defs>
</svg>
